<?xml version="1.0" standalone="no"?>
<!DOCTYPE svg PUBLIC "-//W3C//DTD SVG 20010904//EN"
 "http://www.w3.org/TR/2001/REC-SVG-20010904/DTD/svg10.dtd">
<svg version="1.0" xmlns="http://www.w3.org/2000/svg"
 width="377.000000pt" height="377.000000pt" viewBox="0 0 377.000000 377.000000"
 preserveAspectRatio="xMidYMid meet">

<g transform="translate(0.000000,377.000000) scale(0.100000,-0.100000)"
fill="currentColor" stroke="none">
<path d="M907 1912 c-357 -713 -648 -1300 -648 -1304 1 -4 107 -7 236 -8 l235
-1 18 30 c10 16 195 383 412 815 217 432 397 786 400 786 3 0 25 -38 48 -85
l42 -85 245 0 245 0 -287 575 c-159 316 -290 575 -293 574 -3 0 -297 -584
-653 -1297z"/>
<path d="M1994 2994 c-7 -3 37 -94 110 -227 l121 -222 265 -5 c262 -5 266 -5
322 -32 80 -37 152 -107 191 -187 29 -60 32 -74 32 -161 0 -84 -3 -102 -29
-158 -37 -81 -131 -171 -213 -204 l-58 -23 -617 -3 -618 -3 0 -589 0 -590 225
0 225 0 0 364 0 365 443 3 c440 4 443 4 539 30 330 90 547 318 614 648 22 109
15 283 -16 390 -47 165 -165 336 -298 434 -122 89 -296 150 -476 166 -109 10
-740 13 -762 4z"/>
<path d="M2170 1035 c0 -3 47 -99 105 -215 l105 -209 240 -3 c132 -2 240 0
240 5 0 4 -47 102 -105 217 l-105 210 -240 0 c-132 0 -240 -2 -240 -5z"/>
</g>
</svg>
